<svg xmlns="http://www.w3.org/2000/svg" xmlns:xlink="http://www.w3.org/1999/xlink"><symbol id="adv-ball" viewBox="0 0 34.4 34.4"><path d="M.286 14.069a17.244 17.244 0 0 0 .008 6.301l4.121-3.21-4.129-3.091zM24.403 1.585C19.62-.623 13.959-.559 9.149 1.992l7.513 5.625 7.741-6.032zm9.498 11.59l-4.811 3.748 4.936 3.695a17.248 17.248 0 0 0-.125-7.443zM9.209 32.414c4.844 2.534 10.724 2.65 15.73.113l-8.096-6.062-7.634 5.949zM7.914 14.433L1.681 9.767c-.32.669-.595 1.356-.825 2.056l5.308 3.974 1.75-1.364zm10.679 10.669l8.336 6.242a17.184 17.184 0 0 0 1.74-1.372l-8.326-6.234-1.75 1.364zm-7.18-13.395L4.002 6.158a17.073 17.073 0 0 0-1.269 1.723l6.931 5.189 1.749-1.363zm10.68 10.668l8.092 6.059c.471-.544.904-1.112 1.297-1.701l-7.639-5.721-1.75 1.363zM14.913 8.98L7.196 3.203a17.436 17.436 0 0 0-1.709 1.394l7.676 5.747 1.75-1.364zm10.679 10.669l6.972 5.221c.33-.662.615-1.341.855-2.033l-6.077-4.55-1.75 1.362zm.856-16.943L.88 22.626c.233.698.513 1.386.839 2.059l26.52-20.663a17.006 17.006 0 0 0-1.791-1.316zm4.295 3.918a17.418 17.418 0 0 0-.939-1.106L2.786 26.567a17.144 17.144 0 0 0 1.279 1.717l27.09-21.108c-.134-.186-.269-.37-.412-.552zm1.555 2.375L5.552 29.838c.544.501 1.114.962 1.708 1.382l25.962-20.228a17.158 17.158 0 0 0-.924-1.993z"/></symbol><symbol id="adv-flower" viewBox="8 4.3 32 37.3"><path d="M24 41.65c8.827 0 15.986-7.159 15.986-15.986C31.158 25.664 24 32.822 24 41.65zM12.641 20.78a4.442 4.442 0 0 0 4.44 4.441c.932 0 1.803-.294 2.513-.782l-.036.337c0 2.451 1.99 4.441 4.441 4.441s4.44-1.99 4.44-4.441l-.036-.337a4.396 4.396 0 0 0 2.514.782c2.451 0 4.44-1.99 4.44-4.441a4.418 4.418 0 0 0-2.54-3.997 4.434 4.434 0 0 0 2.54-3.997 4.441 4.441 0 0 0-6.954-3.659l.037-.337a4.441 4.441 0 0 0-8.881 0l.036.337a4.392 4.392 0 0 0-2.513-.781 4.442 4.442 0 0 0-4.44 4.44 4.42 4.42 0 0 0 2.54 3.997 4.42 4.42 0 0 0-2.541 3.997zM24 12.343a4.441 4.441 0 0 1 4.44 4.44 4.441 4.441 0 0 1-8.881 0c0-2.451 1.99-4.44 4.441-4.44zM8.014 25.664c0 8.827 7.158 15.986 15.986 15.986 0-8.828-7.158-15.986-15.986-15.986z"/></symbol><symbol id="adv-gift" viewBox="239.7 239.8 32.7 32.5"><path d="M242.56 272.243h12.504v-13.91H242.56v13.91zm28.182-23.62h-7.335c.521-.267.984-.549 1.396-.845 1.588-1.133 2.424-2.57 2.42-3.999.002-1.169-.556-2.202-1.359-2.901a4.585 4.585 0 0 0-3.016-1.121c-1.22-.001-2.352.421-3.32 1.069-1.459.979-2.606 2.451-3.424 4.067-.039.079-.078.157-.115.236a12.944 12.944 0 0 0-1.041-1.792c-.691-.985-1.523-1.86-2.497-2.511-.97-.646-2.103-1.069-3.322-1.069-1.213.004-2.323.514-3.155 1.295-.828.783-1.41 1.885-1.412 3.135-.002.73.211 1.494.649 2.188.552.872 1.424 1.628 2.633 2.248h-6.588c-.878 0-1.591.712-1.591 1.59v5.897h15.396v-7.488h1.873v7.488h15.396v-5.897a1.585 1.585 0 0 0-1.588-1.59m-22.362-2.339c-.622-.391-1-.785-1.22-1.135-.22-.354-.294-.662-.296-.963-.004-.504.248-1.042.691-1.461.437-.415 1.028-.667 1.562-.667h.013c.685 0 1.366.231 2.046.683 1.018.671 1.975 1.85 2.645 3.187.342.676.609 1.39.789 2.087-3.082-.321-5.078-1.002-6.23-1.731m10.537-1.627c.557-.797 1.21-1.466 1.887-1.916.68-.451 1.362-.683 2.047-.683h.006c.574 0 1.117.22 1.494.55.377.336.571.739.573 1.171-.004.512-.272 1.259-1.467 2.132-1.138.825-3.101 1.673-6.127 2.265a10.57 10.57 0 0 1 1.587-3.519m-1.98 27.586h12.506v-13.91h-12.506v13.91z"/></symbol><symbol id="adv-heart" viewBox="47.5 50.1 33 27.9"><path d="M80.525 58.808a8.736 8.736 0 0 0-8.736-8.736A8.727 8.727 0 0 0 64 54.865a8.727 8.727 0 0 0-7.789-4.793 8.736 8.736 0 0 0-8.736 8.736c0 9.127 14.657 19.121 16.525 19.121 1.869 0 16.525-9.95 16.525-19.121z"/></symbol><symbol id="adv-money" viewBox="46.2 56.8 46.6 27.3"><path d="M88.882 56.834H50.116a3.905 3.905 0 0 0-3.904 3.905V80.26a3.905 3.905 0 0 0 3.904 3.905h38.766a3.906 3.906 0 0 0 3.905-3.905V60.739a3.906 3.906 0 0 0-3.905-3.905zm-39.647 24.95V59.551h40.202v22.233H49.235z"/><path d="M53.14 77.88h32.395V63.456H53.14V77.88zM69.5 65.354a5.315 5.315 0 1 1 0 10.63 5.315 5.315 0 0 1 0-10.63z"/></symbol><symbol id="adv-rocket" viewBox="612.5 500.4 54.2 23.2"><path d="M652.844 506.098c-3.647-.971-7.839-1.667-12.359-1.666a46.394 46.394 0 0 0-7.71.623l-6.784-4.668-13.456.005 5.811 6.184h8.447c-4.58 1.598-6.759 3.515-6.759 3.515l.002 3.777s2.313 1.912 6.931 3.518l-8.623-.005-5.811 6.188 13.455.002 6.816-4.692c2.261.398 4.822.647 7.681.648 4.522-.001 8.712-.697 12.36-1.667-1.176-1.775-1.915-3.743-1.918-5.877.003-2.141.738-4.112 1.917-5.885zm3.423 1.034c-1.284 1.605-1.969 3.25-1.965 4.84-.007 1.597.677 3.238 1.968 4.847 6.399-2.162 10.419-4.841 10.419-4.841s-4.019-2.68-10.422-4.846z"/></symbol><symbol id="basket" viewBox="0 0 20 19">
<path d="M19.2271 7.23811H15.8454L12.5604 0.402108C12.3672 -9.09136e-06 11.9807 -0.100526 11.5942 0.100532C11.2077 0.301591 11.1111 0.703707 11.3043 1.10582L14.2995 7.23811H5.50723L8.50241 1.10582C8.69565 0.703707 8.50242 0.301591 8.21257 0.100532C7.82609 -0.100526 7.43962 0.10052 7.24638 0.402108L3.96133 7.23811H0.772936C0.386462 7.23811 0 7.53968 0 8.04233C0 8.44445 0.289844 8.84655 0.772936 8.84655H0.966184L1.83574 11.8624C1.64251 11.963 1.54587 12.164 1.54587 12.4656C1.54587 12.8677 1.83574 13.1693 2.22221 13.1693L3.86474 19H16.1353L17.7778 13.1693C18.1643 13.1693 18.4541 12.8677 18.4541 12.4656C18.4541 12.2645 18.3575 11.963 18.1643 11.8624L19.0338 8.84655H19.2271C19.6135 8.84655 20 8.54498 20 8.04233C20 7.53968 19.6135 7.23811 19.2271 7.23811ZM14.8792 17.3915H4.83092L3.67149 13.0688H16.1353L14.8792 17.3915ZM16.4251 11.5609H3.1884L2.41546 8.74605H17.1981L16.4251 11.5609Z"/>
</symbol><symbol id="cart" viewBox="264.205 370.961 20.294 18.849">
  <path d="M283.75,378.19h-3.151l-3.407-6.814c-0.185-0.37-0.634-0.52-1.006-0.335 c-0.371,0.186-0.521,0.636-0.335,1.006l3.071,6.143h-9.138l3.072-6.143c0.185-0.371,0.035-0.821-0.335-1.006 c-0.37-0.185-0.821-0.035-1.006,0.335l-3.407,6.814h-3.151c-0.414,0-0.75,0.336-0.75,0.75s0.336,0.75,0.75,0.75h0.157l0.855,2.991 c-0.187,0.137-0.316,0.347-0.316,0.595c0,0.396,0.309,0.71,0.697,0.739l1.656,5.795h12.697l1.656-5.795 c0.388-0.028,0.698-0.344,0.698-0.739c0-0.249-0.129-0.459-0.316-0.596l0.854-2.991h0.157c0.414,0,0.75-0.336,0.75-0.75 S284.164,378.19,283.75,378.19z M279.569,388.311h-10.433l-1.224-4.284h12.881L279.569,388.311z M281.222,382.526h-13.739 l-0.81-2.836h15.359L281.222,382.526z"/>
</symbol><symbol id="logo-footer" viewBox="0 0 101.615 34.056">
  <g>
    <path d="M19.135,21.495c-0.083-2.683-0.51-5.347-0.475-8.035c0.028-2.174,0.389-4.41-0.36-6.495 c0.047-0.237,0.096-0.473,0.14-0.711c0.193-1.045-3.271-0.492-3.813,0.464c-0.343,0.28-0.519,0.615-0.375,0.957 c0.037,0.086,0.069,0.174,0.102,0.261c-0.656,3.204-1.57,6.306-2.621,9.412c-0.402,1.188-0.888,2.349-1.298,3.533 c-0.582-1.104-1.169-2.194-1.643-3.377C7.418,14.071,6.18,10.602,4.505,7.298C4.695,5.77,1.301,5.93,0.632,7.33 c-0.809,1.694-0.705,3.403-0.438,5.214c0.3,2.042,0.353,4.05,0.377,6.111c0.047,3.976,0.358,7.943,0.417,11.919 c-0.354,0.395-0.461,0.881-0.091,1.375c0.162,0.216,0.361,0.382,0.571,0.549c0.904,0.724,3.5,0.107,3.496-1.271 c-0.014-4.123-0.312-8.238-0.42-12.358c-0.011-0.404-0.018-0.807-0.024-1.21c0.057,0.145,0.114,0.29,0.171,0.434 c0.64,1.604,1.31,3.163,2.185,4.654c0.868,1.478,1.303,3.064,1.803,4.677c-0.189,0.217-0.303,0.462-0.233,0.708 c-0.039,0.18,0.07,0.292,0.251,0.36c0.639,0.548,1.841,0.274,2.509-0.007c0.287-0.121,0.561-0.261,0.826-0.424 c0.345-0.212,0.883-0.679,0.729-1.159c-0.03-0.093-0.058-0.186-0.087-0.279c0.47-1.27,0.709-2.589,0.965-3.93 c0.272-1.428,0.782-2.78,1.295-4.133c0.052,0.619,0.106,1.238,0.156,1.855c0.204,2.554,0.033,5.072,0.007,7.626 c-0.008,0.847,0.054,1.633,0.219,2.461c0.068,0.343,0.367,1.808,0.281,1.887c-0.611,0.564-0.433,1.257,0.385,1.437 c0.915,0.201,2.081-0.105,2.77-0.742c1.198-1.106,0.632-2.845,0.361-4.241C18.661,26.501,19.208,23.879,19.135,21.495z"/>
    <path d="M27.499,22.17c-0.074-1.988-0.765-3.862-0.774-5.872c-0.011-2.305,0.181-4.593-0.155-6.886 c-0.106-0.725-4.056,0.1-3.917,1.05c0.309,2.11,0.197,4.229,0.159,6.354c-0.037,2.044,0.468,3.898,0.73,5.904 c0.269,2.054-0.084,4.157,0.149,6.213c0.109,0.962,0.75,2.743,0.089,3.58c-0.42,0.532,1.469,0.342,1.553,0.326 c0.769-0.142,1.793-0.392,2.304-1.038c0.653-0.828,0.196-2.426,0.053-3.357C27.374,26.385,27.576,24.249,27.499,22.17z"/>
    <path d="M43.828,18.851c-2.062-2.784-5.889-0.78-8.561-1.54c-1.377-0.392-1.395-2.271-1.392-3.396 c0.004-1.426-0.114-2.732-0.273-4.146c-0.119-1.052-0.024-2.121,0.746-2.904c0.142-0.144,0.859-0.336,0.81-0.339 c0.354-0.061,0.676-0.076,1.067-0.093c1.549-0.066,4.613,0.232,4.019,2.483c-0.266,1.01,3.596,0.431,3.877-0.637 c1.213-4.598-7.284-3.714-9.686-3.078C32.225,5.789,29.787,7.047,29.66,9.6c-0.061,1.219,0.273,2.379,0.325,3.587 c0.061,1.39-0.198,2.776,0.289,4.118c1.082,2.982,5.52,1.576,7.778,1.745c3.845,0.287,2.697,5.469,2.748,7.883 c0.027,1.288,1.181,3.429,0.211,4.507c-0.595,0.662-1.982,0.699-2.792,0.768c-0.813,0.068-2.201,0.312-2.742-0.461 c-0.993-1.418,0.091-3.799-0.121-5.425c-0.121-0.924-4.066-0.095-3.917,1.05c0.342,2.627-1.399,6.145,2.402,6.596 c2.441,0.289,5.191-0.161,7.5-0.928c1.196-0.396,2.307-0.942,3.243-1.793c1.035-0.941,0.694-2.348,0.417-3.547 C44.324,24.782,45.732,21.421,43.828,18.851z"/>
    <path d="M61.155,18.662c-0.122-3.777-0.69-7.513-0.706-11.297c-0.008-1.971-3.963-1.305-3.957,0.343 c0.015,3.608,0.497,7.167,0.682,10.764c0.004,0.074,0.008,0.147,0.013,0.221c-1.949-0.018-3.899,0.177-5.853,0.246 c0.201-4.633-0.611-9.227-0.435-13.857c0.022-0.582-3.874-0.09-3.917,1.049c-0.171,4.475,0.587,8.915,0.453,13.392 c-0.064,2.136-0.245,4.264-0.259,6.402c-0.007,1.095,0.171,2.183,0.329,3.263c0.146,0.999,0.484,2.331,0.182,3.318 c-0.237,0.772,3.561,0.29,3.862-0.694c0.544-1.778-0.222-4.039-0.405-5.839c-0.175-1.725-0.039-3.499,0.083-5.248 c2.03-0.13,4.059-0.297,6.08-0.012c0.09,1.378,0.196,2.754,0.322,4.134c0.105,1.157,0.179,2.313,0.196,3.475 c0.015,1.019,0.142,2.496-0.221,3.461c-0.773,2.057,3.15,1.889,3.723,0.364c0.703-1.87,0.502-4.199,0.383-6.164 C61.562,23.54,61.233,21.109,61.155,18.662z"/>
    <path d="M78.087,23.136c-0.939-2.758-2.373-5.177-3.616-7.797c1.001-1.949,2.018-3.898,2.932-5.888 c0.831-1.808,1.446-3.819,3.08-5.092c0.574-0.447,0.55-0.896-0.255-0.951c-0.875-0.061-2.064,0.192-2.77,0.742 c-1.485,1.158-2.427,2.563-3.201,4.268c-0.932,2.051-1.896,4.063-2.914,6.075c-0.074,0.147-0.149,0.295-0.224,0.443 c-0.49,0.315-0.785,0.762-0.639,1.266c-0.792,1.563-1.6,3.117-2.499,4.61c-0.299-5.534-0.955-11.061-1.15-16.6 c-0.045-1.27-3.971-0.479-3.917,1.049c0.243,6.868,1.219,13.719,1.286,20.587c-0.016,0.017-0.031,0.034-0.047,0.051 c-0.301,0.308-0.19,0.494,0.051,0.602c0.002,1.75-0.059,3.501-0.209,5.254c-0.472,0.745,0.463,1.139,1.084,1.139 c0.032,0,0.064,0,0.096,0c0.739,0,2.626-0.35,2.718-1.364c0.191-2.1,0.251-4.196,0.232-6.291c1.59-1.715,2.89-3.63,4.055-5.635 c0.759,1.48,1.482,2.972,1.989,4.582c0.861,2.741,2.299,5.261,3.131,8.014c0.544,1.806,4.457,0.738,3.917-1.049 C80.388,28.398,79.013,25.854,78.087,23.136z"/>
    <path d="M101.59,18.501c-0.21-0.832-1.372-0.849-2.271-0.77c-0.012-0.335-0.02-0.671-0.036-1.006 c-0.125-2.661-0.165-5.379-0.392-8.032c-0.209-2.458-1.585-3.337-3.972-3.247c-2.416,0.092-5.229,0.527-7.482,1.403 c-2.607,1.014-4.058,2.935-4.559,5.681c-0.549,3.014,0.24,6.219,0.373,9.246c0.154,3.503,0.066,7.014,0.062,10.519 c0,0.573,3.916,0.031,3.917-1.049c0.003-2.776,0.042-5.551,0-8.327c-0.013-0.818-0.051-1.632-0.102-2.444 c1.369-0.593,3.687,0.012,5.05,0.141c1.107,0.104,2.169-0.166,3.244-0.292c0.021,2.312,0.107,4.635,0.202,6.944 c0.049,1.184,0.477,3.53-0.354,4.511c-0.437,0.516,1.48,0.343,1.555,0.33c0.793-0.146,1.761-0.401,2.303-1.041 c0.949-1.12,0.456-3.79,0.401-5.126c-0.078-1.91-0.102-3.824-0.141-5.737C100.542,20.058,101.805,19.351,101.59,18.501z M86.972,18.351c-0.103-1.245-0.217-2.49-0.303-3.743c-0.16-2.331,0.117-5.583,2.29-6.999c0.58-0.379,1.675-0.315,2.354-0.438 c0.97-0.176,1.956-0.389,2.829,0.19c1.21,0.802,0.912,3.657,0.911,4.869c-0.003,2.005,0.207,4.001,0.31,6.003 c-0.552,0.055-1.111,0.089-1.683,0.076C91.394,18.256,89.136,17.896,86.972,18.351z"/>
    <path d="M24.108,6.7c0.521-0.05,1.045-0.226,1.477-0.524c0.085-0.072,0.171-0.144,0.256-0.216c0.52-0.335,0.972-0.827,0.728-1.361 c-0.504-1.105-0.423-2.231-0.416-3.414c0.006-0.958-0.963-1.246-1.781-1.174c-0.723,0.063-2.168,0.581-2.175,1.52 c-0.006,0.993-0.071,2.016,0.109,2.992c-0.047,0.113-0.074,0.239-0.104,0.355c-0.055,0.212,0.016,0.42,0.142,0.59 c0,0.045,0.002,0.089,0.002,0.134c0.005,0.112,0.01,0.224,0.015,0.335c0.073,0.232,0.216,0.409,0.429,0.53 C23.178,6.7,23.668,6.742,24.108,6.7z"/>
  </g>
</symbol><symbol id="logo-htmlacademy" viewBox="0 0 26.943 34.09">
  <path d="M13.62,0.017L13.472,0L0,1.412v24.661l13.473,8.017l13.43-7.99l0.042-0.025V1.412L13.62,0.017z M25.019,12.127L13.495,5.334 L13.494,5.23l-0.087,0.05l-0.088-0.056v0.109L1.925,12.118V3.147l11.548-1.212l11.547,1.212V12.127z M13.405,6.787L24.923,13.5 l-4.479,2.64l-7.093-4.221l-0.014,1.415l5.904,3.513l-0.86,0.507l-5.03-2.992l-0.014,1.415l3.827,2.275l-0.782,0.523l-3.031-1.787 l-0.014,1.413l1.853,1.091l-1.8,1.081L2.034,13.622L13.405,6.787z M1.925,15.127l11.411,6.791l0.016,1.044L5.41,18.234L5.395,19.65 l7.979,4.795l0.018,1.076l-7.973-4.74l-0.013,1.414l8.021,4.822l0.046,0.025l8.143-4.872l-0.011-5.177l3.415-2.036v10.021 L13.472,31.85L1.925,24.979V15.127z"/>
</symbol><symbol id="play-btn" viewBox="0 0 101 77">
<path d="M96.9 18.1C96.9 18.1 96 11.1 93.1 7.99997C89.5 3.99997 85.4 3.89995 83.6 3.69995C70.3 2.69995 50.3 2.69995 50.3 2.69995H50.2C50.2 2.69995 30.2 2.69995 16.9 3.69995C15 3.89995 11 3.99997 7.40001 7.99997C4.60001 11.1 3.60001 18.1 3.60001 18.1C3.60001 18.1 2.70001 26.3 2.70001 34.5V42.2C2.70001 50.4 3.60001 58.6 3.60001 58.6C3.60001 58.6 4.50001 65.6 7.40001 68.7C11 72.7 15.8 72.6 17.9 73C25.5 73.8 50.3 74 50.3 74C50.3 74 70.3 74 83.6 73C85.5 72.8 89.5 72.7 93.1 68.7C95.9 65.6 96.9 58.6 96.9 58.6C96.9 58.6 97.8 50.4 97.8 42.2V34.5C97.8 26.3 96.9 18.1 96.9 18.1Z" fill="#63D1BB"/>
<path d="M50.2 76.8C49.2 76.8 25.2 76.5 17.6 75.8H17.5H17.4C17.1 75.7 16.7 75.7 16.3 75.6C13.8 75.3 9.1 74.7 5.5 70.6C2.1 67 1.1 59.8 1 59C1 58.7 0 50.5 0 42.3V34.6C0 26.3 0.900009 18.2 0.900009 17.9V17.8C1.00001 17 2.10001 9.89998 5.40001 6.19998C9.40001 1.79998 13.9 1.30001 16.1 1.10001C16.3 1.10001 16.5 1.1 16.6 1H16.7C30 0 50 0 50.2 0H50.3C50.5 0 70.5 0 83.8 1H83.9C84.1 1 84.2 1.00001 84.4 1.10001C86.6 1.30001 91.1 1.79998 95.1 6.19998C98.5 9.79998 99.5 17 99.6 17.8C99.6 18.1 100.6 26.3 100.6 34.6V42.3C100.6 50.6 99.7 58.7 99.6 59V59.1C99.5 59.9 98.4 67.1 95.1 70.7C91.1 75.1 86.6 75.6 84.4 75.8C84.2 75.8 84 75.8 83.9 75.9H83.8C70.5 76.8 50.4 76.8 50.2 76.8ZM18.3 70.4C25.8 71.1 49.5 71.4 50.3 71.4C51 71.4 70.4 71.4 83.3 70.4C83.5 70.4 83.7 70.4 83.9 70.3C85.7 70.1 88.5 69.8 91.1 67C92.9 65 94 60.1 94.2 58.4C94.3 57.9 95.1 50 95.1 42.3V34.6C95.1 26.8 94.2 19 94.1 18.5C93.8 16.1 92.7 11.7 91 10C88.4 7.1 85.6 6.89998 83.8 6.69998C83.6 6.69998 83.4 6.70001 83.2 6.60001C70.1 5.60001 50.4 5.60001 50.2 5.60001H50.1C49.9 5.60001 30.1 5.60001 17.1 6.60001C16.9 6.60001 16.7 6.59998 16.5 6.69998C14.7 6.89998 11.9 7.2 9.30002 10C7.50002 12 6.40001 16.9 6.20001 18.6C6.10001 19.2 5.3 27 5.3 34.7V42.4C5.3 50.1 6.20001 58 6.20001 58.5C6.50001 60.9 7.60002 65.3 9.30002 67C11.6 69.6 14.6 70 16.8 70.3C17.4 70.2 17.8 70.3 18.3 70.4Z" fill="white"/>
<path d="M38.3003 20.5V56.2L68.1003 38.4L38.3003 20.5Z" fill="white"/>
</symbol><symbol id="search" viewBox="-0.8 -0.8 17.6 17.6">
  <path d="M16.47,14.93l-3.415-3.415C14.02,10.226,14.6,8.634,14.6,6.899c0-4.253-3.447-7.699-7.7-7.699 S-0.8,2.646-0.8,6.899s3.446,7.7,7.699,7.7c1.734,0,3.326-0.58,4.613-1.546l3.417,3.416c0.203,0.202,0.418,0.33,0.771,0.33 c0.607,0,1.1-0.492,1.1-1.1C16.8,15.459,16.739,15.2,16.47,14.93z M1.399,6.899c0-3.038,2.462-5.5,5.5-5.5s5.5,2.462,5.5,5.5 s-2.462,5.5-5.5,5.5S1.399,9.938,1.399,6.899z"/>
</symbol><symbol id="tm" viewBox="0 0 20 18">
  <path fill-rule="evenodd" clip-rule="evenodd" d="M19.4608 0.152905C19.6393 0.302216 19.7255 0.534898 19.6872 0.764481L17.0611 16.5214C17.0244 16.7411 16.8789 16.9273 16.6745 17.0159C16.47 17.1045 16.2346 17.0833 16.0493 16.9597L8.17082 11.7074C8.01771 11.6054 7.91447 11.4437 7.88624 11.2619C7.858 11.08 7.90738 10.8947 8.02233 10.751L10.633 7.48773L6.27303 10.3944C6.077 10.525 5.82597 10.5407 5.61524 10.4353L0.362931 7.80915C0.127693 7.69153 -0.0146529 7.44488 0.00119976 7.18235C0.0170525 6.91983 0.188044 6.6921 0.435726 6.60364L18.8188 0.0382579C19.038 -0.0400244 19.2822 0.00359465 19.4608 0.152905ZM2.32626 7.32275L5.86168 9.09046L13.4231 4.0495C13.6925 3.86994 14.0525 3.91349 14.2712 4.1521C14.49 4.3907 14.5022 4.75314 14.3 5.00591L9.49502 11.0121L15.9328 15.3039L18.2083 1.65058L2.32626 7.32275Z"/>
</symbol><symbol id="vk" viewBox="0 0 27 17">
  <path d="M0 2.33876C0 1.48373 0.515103 1.02268 1.54531 0.955621L5.51515 0.980769C5.78158 0.980769 5.95921 1.10651 6.04802 1.35799C6.45655 2.61538 6.91392 3.70094 7.42014 4.61465C7.92637 5.52835 8.58801 6.58038 9.40507 7.77071C9.47611 7.9216 9.59157 7.99704 9.75143 7.99704C9.87576 7.99704 9.97345 7.93836 10.0445 7.82101L10.1244 7.54438L10.1511 3.19379C10.1511 2.89201 10.0756 2.69083 9.92461 2.59024C9.77363 2.48964 9.49388 2.4142 9.08535 2.36391C8.76563 2.31361 8.60577 2.12919 8.60577 1.81065C8.60577 1.74359 8.61465 1.69329 8.63241 1.65976C9.00542 0.57002 10.0711 0.0251479 11.8296 0.0251479L13.3216 0C13.9966 0 14.5561 0.15927 15.0001 0.477811C15.4442 0.796351 15.6662 1.29931 15.6662 1.98669V7.69527C15.7906 7.77909 15.906 7.82101 16.0126 7.82101C16.279 7.82101 16.5099 7.67012 16.7053 7.36834C18.6592 4.78649 19.716 3.05966 19.8759 2.18787C19.8759 2.1711 19.8936 2.12919 19.9291 2.06213C20.0535 1.81065 20.2577 1.5927 20.5419 1.40828C20.8261 1.22387 21.0748 1.09813 21.288 1.03107C21.359 0.997535 21.4389 0.980769 21.5277 0.980769H25.6574L25.9239 1.00592C26.2791 1.00592 26.5544 1.16519 26.7498 1.48373C26.8209 1.58432 26.8697 1.69329 26.8964 1.81065C26.923 1.92801 26.9408 2.04536 26.9496 2.16272C26.9585 2.28008 26.963 2.34714 26.963 2.36391V2.53994C26.8386 3.22732 26.5233 3.9608 26.0171 4.74038C25.5109 5.51997 24.867 6.36243 24.0855 7.26775C23.304 8.17308 22.8155 8.76825 22.6201 9.05326C22.4603 9.25444 22.3803 9.43886 22.3803 9.60651C22.3803 9.74063 22.4514 9.89152 22.5935 10.0592L26.4834 14.6864C26.6965 14.9546 26.8031 15.248 26.8031 15.5666C26.8031 15.9522 26.6432 16.2707 26.3235 16.5222C26.0038 16.7737 25.6219 16.9162 25.1779 16.9497L24.7249 16.9749H20.6752C20.6574 16.9749 20.6219 16.979 20.5686 16.9874C20.5153 16.9958 20.4798 17 20.462 17C20.0712 17 19.7071 16.8407 19.3696 16.5222C19.2453 16.3881 18.4105 15.3989 16.8652 13.5547C16.7764 13.4374 16.652 13.3284 16.4922 13.2278C16.4211 13.4961 16.3279 13.8817 16.2124 14.3846C16.097 14.8876 16.0126 15.248 15.9593 15.466L15.8794 15.8935C15.7018 16.4803 15.3287 16.8323 14.7604 16.9497L14.3874 16.9749H11.7763C10.3021 16.9749 8.83224 16.3378 7.36686 15.0636C5.90148 13.7894 4.58264 12.1423 3.41034 10.122C2.23803 8.10182 1.14566 5.75049 0.133216 3.06805C0.0444054 2.8501 0 2.607 0 2.33876ZM16.0126 8.85207C15.6396 8.85207 15.3021 8.75567 15.0001 8.56287C14.6982 8.37007 14.5472 8.10602 14.5472 7.77071V1.98669C14.5472 1.65138 14.4584 1.41248 14.2808 1.26997C14.1032 1.12747 13.7923 1.05621 13.3483 1.05621L11.8296 1.10651C11.0658 1.10651 10.4886 1.23225 10.0978 1.48373C10.8793 1.8358 11.2701 2.40582 11.2701 3.19379V7.61982C11.2346 8.03895 11.0569 8.38683 10.7372 8.66346C10.4175 8.94009 10.0623 9.0784 9.6715 9.0784C9.13863 9.0784 8.7301 8.83531 8.44591 8.34911C7.06046 6.37081 6.03025 4.4931 5.35529 2.71598L5.1155 2.06213L1.57195 2.03698C1.34104 2.03698 1.21227 2.04956 1.18562 2.0747C1.15898 2.09985 1.14566 2.1711 1.14566 2.28846C1.14566 2.43935 1.16342 2.59862 1.19895 2.76627L1.75845 4.17456C3.25048 7.81262 4.87127 10.6795 6.62085 12.7751C8.37042 14.8708 10.0889 15.9186 11.7763 15.9186H14.4406C14.5472 15.9186 14.6271 15.8893 14.6804 15.8306C14.7337 15.7719 14.7781 15.6588 14.8136 15.4911L14.8669 15.2396L15.3732 13.0266C15.5152 12.7249 15.6396 12.5237 15.7462 12.4231C15.9415 12.2387 16.1725 12.1465 16.4389 12.1465C16.8652 12.1465 17.3003 12.3895 17.7444 12.8757L20.0091 15.5917C20.1512 15.8097 20.3022 15.9186 20.462 15.9186H24.8581C25.391 15.9186 25.6574 15.7929 25.6574 15.5414C25.6574 15.4576 25.6308 15.3738 25.5775 15.2899L21.7142 10.7382C21.4123 10.3861 21.2613 10.0089 21.2613 9.60651C21.2613 9.20414 21.4034 8.81854 21.6876 8.4497C21.9185 8.1144 22.367 7.55695 23.0331 6.77737C23.6992 5.99778 24.2809 5.26849 24.7782 4.5895C25.2756 3.9105 25.6042 3.29438 25.764 2.74112L25.8439 2.4142C25.8262 2.38067 25.8173 2.32618 25.8173 2.25074C25.8173 2.1753 25.8084 2.11243 25.7907 2.06213H21.6077C21.3412 2.16272 21.1281 2.31361 20.9682 2.51479L20.8084 2.9926C20.3643 4.14941 19.2009 5.93491 17.3181 8.34911C16.9451 8.68442 16.5099 8.85207 16.0126 8.85207Z"/>
</symbol><symbol id="yt" viewBox="0 0 24 19">
  <path d="M15.8509 8.79275L10.6145 5.30184C10.5159 5.23691 10.4016 5.19985 10.2837 5.19459C10.1657 5.18934 10.0486 5.21608 9.94459 5.27198C9.84061 5.32789 9.75369 5.41087 9.69302 5.51215C9.63236 5.61343 9.60022 5.72924 9.6 5.84729V12.8291C9.60013 12.9481 9.6327 13.0648 9.69421 13.1667C9.75572 13.2686 9.84384 13.3518 9.94909 13.4073C10.0524 13.4631 10.1691 13.4895 10.2864 13.4837C10.4037 13.478 10.5172 13.4402 10.6145 13.3746L15.8509 9.88366C15.9409 9.82395 16.0148 9.7429 16.0658 9.64772C16.1169 9.55255 16.1436 9.44621 16.1436 9.3382C16.1436 9.23019 16.1169 9.12385 16.0658 9.02868C16.0148 8.93351 15.9409 8.85245 15.8509 8.79275ZM10.9091 11.6073V7.06911L14.3127 9.3382L10.9091 11.6073ZM23.3891 3.04366C23.2942 2.67547 23.1131 2.33511 22.8609 2.05061C22.6086 1.76611 22.2924 1.54561 21.9382 1.40729C18.2182 -0.0217993 12.2509 1.91553e-05 12 1.91553e-05C11.7491 1.91553e-05 5.78182 -0.0217993 2.06182 1.40729C1.70764 1.54561 1.3914 1.76611 1.13914 2.05061C0.886889 2.33511 0.705838 2.67547 0.610909 3.04366C0.327273 4.11275 0 6.07638 0 9.3382C0 12.6 0.327273 14.5637 0.610909 15.6327C0.705838 16.0009 0.886889 16.3413 1.13914 16.6258C1.3914 16.9103 1.70764 17.1308 2.06182 17.2691C5.78182 18.6982 11.7491 18.6764 12 18.6764H12.0764C12.8291 18.6764 18.3927 18.6327 21.9382 17.2691C22.2924 17.1308 22.6086 16.9103 22.8609 16.6258C23.1131 16.3413 23.2942 16.0009 23.3891 15.6327C23.6727 14.5637 24 12.6 24 9.3382C24 6.07638 23.6727 4.11275 23.3891 3.04366ZM22.1236 15.3055C22.0807 15.472 21.999 15.6259 21.8853 15.7548C21.7715 15.8838 21.6289 15.984 21.4691 16.0473C17.9782 17.3891 12.0655 17.3673 12 17.3673C11.9345 17.3673 6.02182 17.3891 2.53091 16.0473C2.37107 15.984 2.22846 15.8838 2.11471 15.7548C2.00096 15.6259 1.91929 15.472 1.87636 15.3055C1.61455 14.3018 1.30909 12.4582 1.30909 9.3382C1.30909 6.2182 1.61455 4.37457 1.87636 3.37093C1.91929 3.20445 2.00096 3.05047 2.11471 2.92156C2.22846 2.79264 2.37107 2.69243 2.53091 2.62911C6.02182 1.28729 11.9345 1.30911 12 1.30911C12.0655 1.30911 17.9782 1.28729 21.4691 2.62911C21.6289 2.69243 21.7715 2.79264 21.8853 2.92156C21.999 3.05047 22.0807 3.20445 22.1236 3.37093C22.3855 4.37457 22.6909 6.2182 22.6909 9.3382C22.6909 12.4582 22.3855 14.3018 22.1236 15.3055Z"/>
</symbol></svg>