<svg width="101" height="77" viewBox="0 0 101 77" fill="none" xmlns="http://www.w3.org/2000/svg">
<path d="M96.9 18.1C96.9 18.1 96 11.1 93.1 7.99997C89.5 3.99997 85.4 3.89995 83.6 3.69995C70.3 2.69995 50.3 2.69995 50.3 2.69995H50.2C50.2 2.69995 30.2 2.69995 16.9 3.69995C15 3.89995 11 3.99997 7.40001 7.99997C4.60001 11.1 3.60001 18.1 3.60001 18.1C3.60001 18.1 2.70001 26.3 2.70001 34.5V42.2C2.70001 50.4 3.60001 58.6 3.60001 58.6C3.60001 58.6 4.50001 65.6 7.40001 68.7C11 72.7 15.8 72.6 17.9 73C25.5 73.8 50.3 74 50.3 74C50.3 74 70.3 74 83.6 73C85.5 72.8 89.5 72.7 93.1 68.7C95.9 65.6 96.9 58.6 96.9 58.6C96.9 58.6 97.8 50.4 97.8 42.2V34.5C97.8 26.3 96.9 18.1 96.9 18.1Z" fill="#63D1BB"/>
<path d="M50.2 76.8C49.2 76.8 25.2 76.5 17.6 75.8H17.5H17.4C17.1 75.7 16.7 75.7 16.3 75.6C13.8 75.3 9.1 74.7 5.5 70.6C2.1 67 1.1 59.8 1 59C1 58.7 0 50.5 0 42.3V34.6C0 26.3 0.900009 18.2 0.900009 17.9V17.8C1.00001 17 2.10001 9.89998 5.40001 6.19998C9.40001 1.79998 13.9 1.30001 16.1 1.10001C16.3 1.10001 16.5 1.1 16.6 1H16.7C30 0 50 0 50.2 0H50.3C50.5 0 70.5 0 83.8 1H83.9C84.1 1 84.2 1.00001 84.4 1.10001C86.6 1.30001 91.1 1.79998 95.1 6.19998C98.5 9.79998 99.5 17 99.6 17.8C99.6 18.1 100.6 26.3 100.6 34.6V42.3C100.6 50.6 99.7 58.7 99.6 59V59.1C99.5 59.9 98.4 67.1 95.1 70.7C91.1 75.1 86.6 75.6 84.4 75.8C84.2 75.8 84 75.8 83.9 75.9H83.8C70.5 76.8 50.4 76.8 50.2 76.8ZM18.3 70.4C25.8 71.1 49.5 71.4 50.3 71.4C51 71.4 70.4 71.4 83.3 70.4C83.5 70.4 83.7 70.4 83.9 70.3C85.7 70.1 88.5 69.8 91.1 67C92.9 65 94 60.1 94.2 58.4C94.3 57.9 95.1 50 95.1 42.3V34.6C95.1 26.8 94.2 19 94.1 18.5C93.8 16.1 92.7 11.7 91 10C88.4 7.1 85.6 6.89998 83.8 6.69998C83.6 6.69998 83.4 6.70001 83.2 6.60001C70.1 5.60001 50.4 5.60001 50.2 5.60001H50.1C49.9 5.60001 30.1 5.60001 17.1 6.60001C16.9 6.60001 16.7 6.59998 16.5 6.69998C14.7 6.89998 11.9 7.2 9.30002 10C7.50002 12 6.40001 16.9 6.20001 18.6C6.10001 19.2 5.3 27 5.3 34.7V42.4C5.3 50.1 6.20001 58 6.20001 58.5C6.50001 60.9 7.60002 65.3 9.30002 67C11.6 69.6 14.6 70 16.8 70.3C17.4 70.2 17.8 70.3 18.3 70.4Z" fill="white"/>
<path d="M38.3003 20.5V56.2L68.1003 38.4L38.3003 20.5Z" fill="white"/>
</svg>
