<svg width="52" height="23" viewBox="0 0 52 23" fill="none" xmlns="http://www.w3.org/2000/svg">
<path fill-rule="evenodd" clip-rule="evenodd" d="M52 0.00415039C44.084 0.161133 39.8833 4.64087 36.48 8.27075L36.4521 8.30005L36.3306 8.42944C33.2898 11.6626 31.0918 14 26.2261 14C21.387 14 19.1042 11.6001 16 8.30005L15.9722 8.27002C12.5073 4.5752 8.21704 0 0.0217285 0H0V9.03052C0.300537 9.01025 0.611816 9 0.934814 9C5.77393 9 8.05664 11.3999 11.1609 14.7L11.1887 14.7292C14.6533 18.4243 18.9438 23 27.1392 23C35.3345 23 39.625 18.4243 43.0896 14.7292L43.1174 14.7C45.9194 11.7212 48.0522 9.47583 52 9.06689V0.00415039Z" fill="#F1F1F1"/>
</svg>
